<svg width="32" height="32" viewBox="0 0 32 32" fill="none" xmlns="http://www.w3.org/2000/svg">
<g clip-path="url(#clip0_273_183)">
<path d="M16 22.9173C12.1854 22.9173 9.08271 19.8146 9.08271 16C9.08271 12.1854 12.1854 9.08271 16 9.08271C19.8146 9.08271 22.9173 12.1854 22.9173 16C22.9173 19.8146 19.8133 22.9173 16 22.9173ZM16 11.7494C14.873 11.7504 13.7924 12.1986 12.9955 12.9955C12.1986 13.7924 11.7504 14.873 11.7494 16C11.7504 17.127 12.1986 18.2076 12.9955 19.0045C13.7924 19.8014 14.873 20.2496 16 20.2506C17.127 20.2496 18.2076 19.8014 19.0045 19.0045C19.8014 18.2076 20.2496 17.127 20.2506 16C20.2496 14.873 19.8014 13.7924 19.0045 12.9955C18.2076 12.1986 17.127 11.7504 16 11.7494ZM17.3333 5.36673C17.3288 5.71588 17.1858 6.04894 16.9357 6.2927C16.6857 6.53647 16.3492 6.67099 16 6.66672C15.264 6.66672 14.6667 6.08406 14.6667 5.36673V1.30009C14.6712 0.950938 14.8142 0.617884 15.0643 0.37412C15.3143 0.130356 15.6508 -0.00417229 16 9.86734e-05C16.736 9.86734e-05 17.3333 0.582762 17.3333 1.30009V5.36673ZM17.3333 30.6999C17.3288 31.0491 17.1858 31.3821 16.9357 31.6259C16.6857 31.8696 16.3492 32.0042 16 31.9999C15.2627 31.9999 14.6667 31.4159 14.6667 30.6999V26.6319C14.6689 26.4591 14.7052 26.2884 14.7735 26.1296C14.8417 25.9708 14.9405 25.827 15.0643 25.7064C15.1882 25.5858 15.3345 25.4908 15.4951 25.4268C15.6556 25.3628 15.8272 25.331 16 25.3333C16.736 25.3333 17.3333 25.9146 17.3333 26.6333V30.6999ZM5.36673 14.6667C6.08406 14.6667 6.66672 15.264 6.66672 16C6.66672 16.7373 6.08406 17.3333 5.36673 17.3333H1.30009C0.950939 17.3288 0.617884 17.1857 0.37412 16.9357C0.130356 16.6857 -0.00417229 16.3492 9.86734e-05 16C9.86734e-05 15.264 0.582762 14.6667 1.30009 14.6667H5.36673ZM30.6999 14.6667C31.4172 14.6667 31.9999 15.264 31.9999 16C31.9999 16.7373 31.4159 17.3333 30.6999 17.3333H26.6319C26.4591 17.3311 26.2884 17.2948 26.1296 17.2265C25.9708 17.1583 25.827 17.0595 25.7064 16.9357C25.5858 16.8118 25.4908 16.6655 25.4268 16.5049C25.3628 16.3444 25.331 16.1728 25.3333 16C25.3333 15.264 25.9146 14.6667 26.6333 14.6667H30.6999ZM7.53872 22.576C7.66241 22.4551 7.80872 22.3599 7.96927 22.2957C8.12982 22.2315 8.30146 22.1996 8.47436 22.2018C8.64726 22.204 8.81802 22.2403 8.97686 22.3087C9.13571 22.377 9.27951 22.476 9.40004 22.6C9.52387 22.7206 9.62271 22.8644 9.69093 23.0232C9.75916 23.1821 9.79542 23.3528 9.79765 23.5256C9.79987 23.6985 9.76803 23.8701 9.70392 24.0306C9.63982 24.1912 9.54471 24.3375 9.42404 24.4613L6.54806 27.3386C6.29756 27.5816 5.96086 27.7153 5.61188 27.7103C5.2629 27.7053 4.93017 27.562 4.68674 27.3119C4.43699 27.0681 4.29418 26.7352 4.28968 26.3862C4.28518 26.0373 4.41935 25.7007 4.66274 25.4506L7.53872 22.576ZM25.4519 4.66274C25.7021 4.41935 26.0386 4.28518 26.3876 4.28968C26.7365 4.29418 27.0695 4.43698 27.3133 4.68674C27.563 4.93052 27.7058 5.26345 27.7103 5.61243C27.7148 5.96141 27.5806 6.29791 27.3373 6.54806L24.4613 9.42404C24.3376 9.54487 24.1913 9.64012 24.0307 9.70432C23.8702 9.76853 23.6985 9.80043 23.5256 9.7982C23.3527 9.79597 23.182 9.75965 23.0231 9.69133C22.8643 9.62301 22.7205 9.52402 22.6 9.40004C22.476 9.27951 22.3771 9.13574 22.3088 8.97696C22.2404 8.81817 22.204 8.64748 22.2017 8.47463C22.1993 8.30178 22.2311 8.13016 22.295 7.96957C22.359 7.80898 22.454 7.66258 22.5746 7.53872L25.4519 4.66274ZM7.53872 9.42271C7.78891 9.66634 8.12554 9.80079 8.47473 9.79654C8.82393 9.79229 9.15718 9.64969 9.40137 9.40004C9.5252 9.27942 9.62405 9.13558 9.69227 8.97675C9.76049 8.81792 9.79675 8.6472 9.79898 8.47435C9.80121 8.3015 9.76936 8.12991 9.70526 7.96937C9.64115 7.80883 9.54605 7.66249 9.42537 7.53872L6.54806 4.66007C6.29756 4.41703 5.96086 4.28334 5.61188 4.28834C5.2629 4.29334 4.93017 4.43662 4.68674 4.68674C4.56291 4.80736 4.46407 4.95119 4.39584 5.11003C4.32762 5.26886 4.29136 5.43957 4.28913 5.61242C4.2869 5.78527 4.31875 5.95687 4.38285 6.11741C4.44696 6.27795 4.54206 6.42428 4.66274 6.54806L7.53872 9.42271ZM25.4519 27.3373C25.5758 27.4578 25.7222 27.5528 25.8828 27.6168C26.0434 27.6808 26.215 27.7126 26.3879 27.7102C26.5607 27.7079 26.7314 27.6715 26.8902 27.6031C27.049 27.5348 27.1927 27.4358 27.3133 27.3119C27.563 27.0681 27.7058 26.7352 27.7103 26.3862C27.7148 26.0373 27.5806 25.7007 27.3373 25.4506L24.4613 22.5746C24.3376 22.4538 24.1913 22.3585 24.0307 22.2943C23.8702 22.2301 23.6985 22.1982 23.5256 22.2005C23.3527 22.2027 23.182 22.239 23.0231 22.3073C22.8643 22.3757 22.7205 22.4746 22.6 22.5986C22.476 22.7192 22.3771 22.8629 22.3088 23.0217C22.2404 23.1805 22.204 23.3512 22.2017 23.524C22.1993 23.6969 22.2311 23.8685 22.295 24.0291C22.359 24.1897 22.454 24.3361 22.5746 24.4599L25.4519 27.3373Z" fill="white"/>
</g>
<defs>
<clipPath id="clip0_273_183">
<rect width="32" height="32" fill="white"/>
</clipPath>
</defs>
</svg>
