<svg width="32" height="32" viewBox="0 0 32 32" fill="none" xmlns="http://www.w3.org/2000/svg">
<path d="M17.0063 29.9063C16.7876 29.9063 16.5688 29.9063 16.3438 29.8938C9.10005 29.5688 3.05005 23.7376 2.5438 16.6251C2.1063 10.5188 5.63755 4.81256 11.3251 2.42506C12.9438 1.75006 13.7938 2.26881 14.1563 2.64381C14.5188 3.00631 15.0251 3.84381 14.3501 5.38756C13.7563 6.75631 13.4563 8.21881 13.4688 9.71881C13.4938 15.4501 18.2563 20.3126 24.0626 20.5438C24.9063 20.5813 25.7313 20.5188 26.5313 20.3751C28.2376 20.0626 28.9501 20.7501 29.2188 21.1876C29.4876 21.6251 29.8001 22.5688 28.7688 23.9688C26.0313 27.7188 21.6751 29.9063 17.0063 29.9063ZM4.4688 16.4813C4.9063 22.6376 10.1626 27.6813 16.4188 27.9563C20.6751 28.1626 24.7126 26.2251 27.1938 22.8313C27.3876 22.5626 27.4813 22.3626 27.5188 22.2626C27.4001 22.2501 27.1938 22.2376 26.8751 22.3001C25.9313 22.4688 24.9501 22.5313 23.9751 22.4938C17.1438 22.2251 11.5563 16.4938 11.5188 9.73756C11.5188 7.95006 11.8688 6.23131 12.5813 4.61256C12.7126 4.32506 12.7376 4.13131 12.7501 4.03131C12.6313 4.03131 12.4251 4.05631 12.0876 4.20006C7.16255 6.27506 4.1063 11.2126 4.4688 16.4813Z" fill="black"/>
</svg>
